inDegrees=no
num_controls=7
num_derivatives=13
num_iterations=141
num_multipliers=7
num_parameters=0
num_slacks=7
num_states=26
objective=0.477021
objective_accelerations=0.043857
objective_balance=0.003567
objective_effort=0.040334
objective_height=0.383592
objective_ligament=0.005671
solver_duration=1922.864535
status=Solve_Succeeded
success=true
DataType=double
version=3
OpenSimVersion=4.5
endheader
time	/jointset/ground_pelvis/pelvis_tilt/value	/jointset/ground_pelvis/pelvis_tx/value	/jointset/ground_pelvis/pelvis_ty/value	/jointset/hip_l/hip_flexion_l/value	/jointset/hip_l/hip_adduction_l/value	/jointset/hip_l/hip_rotation_l/value	/jointset/back/lumbar_extension/value	/jointset/patellofemoral_l/patellar_flexion_l/value	/jointset/knee_l/knee_flexion_l/value	/jointset/knee_l/knee_adduction_l/value	/jointset/knee_l/knee_rotation_l/value	/jointset/ankle_l/ankle_angle_l/value	/jointset/subtalar_l/subtalar_angle_l/value	/jointset/ground_pelvis/pelvis_tilt/speed	/jointset/ground_pelvis/pelvis_tx/speed	/jointset/ground_pelvis/pelvis_ty/speed	/jointset/hip_l/hip_flexion_l/speed	/jointset/hip_l/hip_adduction_l/speed	/jointset/hip_l/hip_rotation_l/speed	/jointset/back/lumbar_extension/speed	/jointset/patellofemoral_l/patellar_flexion_l/speed	/jointset/knee_l/knee_flexion_l/speed	/jointset/knee_l/knee_adduction_l/speed	/jointset/knee_l/knee_rotation_l/speed	/jointset/ankle_l/ankle_angle_l/speed	/jointset/subtalar_l/subtalar_angle_l/speed	/forceset/tau_hip_flexion_l	/forceset/tau_hip_adduction_l	/forceset/tau_hip_rotation_l	/forceset/tau_knee_flexion_l	/forceset/tau_ankle_angle_l	/forceset/tau_subtalar_angle_l	/forceset/tau_lumbar_extension	lambda_cid13_p0	lambda_cid13_p1	lambda_cid13_p2	lambda_cid13_p3	lambda_cid13_p4	lambda_cid13_p5	lambda_cid14_p0	/jointset/ground_pelvis/pelvis_tilt/accel	/jointset/ground_pelvis/pelvis_tx/accel	/jointset/ground_pelvis/pelvis_ty/accel	/jointset/hip_l/hip_flexion_l/accel	/jointset/hip_l/hip_adduction_l/accel	/jointset/hip_l/hip_rotation_l/accel	/jointset/back/lumbar_extension/accel	/jointset/patellofemoral_l/patellar_flexion_l/accel	/jointset/knee_l/knee_flexion_l/accel	/jointset/knee_l/knee_adduction_l/accel	/jointset/knee_l/knee_rotation_l/accel	/jointset/ankle_l/ankle_angle_l/accel	/jointset/subtalar_l/subtalar_angle_l/accel	gamma_cid13_p0	gamma_cid13_p1	gamma_cid13_p2	gamma_cid13_p3	gamma_cid13_p4	gamma_cid13_p5	gamma_cid14_p0
0.5	-0.0946791424533424	-0.04082539993127123	0.8073812565244033	0.9276136638187237	-0.3305008728878407	-0.07784992337732667	-0.790870121651603	0.9189576465055475	0.9189576465055349	-0.1061646381821807	-0.1744084276591038	0.1497085513949909	0.01260678703695312	-0.1281101465373225	-0.1560224334301623	-0.4130223377075262	1.588508287245083	-0.03164827342162989	0.5688486827214251	-0.843827222050427	1.774099625452541	1.77409962545255	0.1405486810599994	0.0003981504152535799	0.4343682813249206	0.113082293767701	-0.2729257657090159	0.01922070869482967	-0.00430024120033862	-0.2461708260081547	0.08243604395522738	0.04800908146030992	0.3293596494038571	-17.6002173653155	-19.55071572254992	4.698132236184096	-9.357345080806233	-703.0776392182416	-77.46630291065421	-9.851832311273988	0.2805847296870163	0.6839761844486935	-0.1746235142661628	-1.563842327978931	0.3446313071718176	-0.5197964589378192	1.965228994133213	-1.467454084298065	-1.467454084298095	-0.2093914061871049	0.0002570531525542402	-0.2510669277205688	0.3593550515598695	-2.538163816633956e-07	-2.103349716211885e-07	1.469025522863531e-06	1.310479730325216e-07	-2.784482589306358e-07	-1.16295243781807e-07	-2.183348505009569e-07
0.51	-0.09594602150974738	-0.04235140845262991	0.8032432332356899	0.9434181315748326	-0.33080101014034	-0.0721866014223778	-0.7992092281196183	0.9366224835995621	0.9366224835995632	-0.1047722352712532	-0.1744044030900593	0.1540386128218443	0.01375422306747489	-0.1252455491767046	-0.149178835604913	-0.4144867690579665	1.572162801093947	-0.02839276854914358	0.563754531686316	-0.8239033371531336	1.758613711096717	1.75861371109671	0.1379156905837476	0.0004037293771773681	0.4315718122259586	0.1163703730119485	-0.2792600511054374	0.01957285133321102	-0.004443517052030396	-0.2496753142064513	0.08117255519805472	0.04809551234057058	0.3357122336024176	-18.26933046834357	-19.41961612319113	4.618428536446944	-9.0938516296837	-707.6894580612254	-77.30853285458281	-9.133469307184688	0.2923912514522086	0.6846433021190704	-0.1180737337756191	-1.70330185853661	0.3137774764675313	-0.5135973134755737	2.019578397878212	-1.627230076133969	-1.627230076136345	-0.2926861135831567	0.0005388974811768584	-0.3047658560323173	0.3082113354434766	-2.41501347296205e-07	-1.840821473864292e-07	1.427432271445891e-06	1.28126463121267e-07	-2.614083430641308e-07	-8.217823554388953e-08	-2.106620764390575e-07
0.52	-0.09718365579010851	-0.04380896265162541	0.7990934214758032	0.959052464449458	-0.3310690388642751	-0.06657609555531603	-0.8073463737065911	0.9541248475570369	0.9541248475570525	-0.1034066489141547	-0.1744003566154307	0.1583385437666988	0.01493347528535647	-0.1222611913279447	-0.1423315689575242	-0.4153800319421679	1.554481310948566	-0.02522656770944114	0.5582854651440883	-0.8034350458417815	1.74160499814451	1.741604998144487	0.1351853702979397	0.0004025315298575888	0.4283421849250614	0.119445531239649	-0.2855943365018572	0.01992499397160085	-0.004586792903840274	-0.2531798024047447	0.07990906644088561	0.04818194322084599	0.3420648178009797	-18.94034445231789	-19.28860148618574	4.539216937616321	-8.875530635144052	-712.3640184849395	-77.20283124406006	-8.417264814075949	0.3045368273157018	0.6847099488764075	-0.06038982101841259	-1.831043126828046	0.3267705006150599	-0.5947795603614651	2.074110276945138	-1.772013803574574	-1.772013803574563	-0.2288573680982897	-0.001098308696121595	-0.3376985681078714	0.3167708482504207	-2.337112157973023e-07	-2.05140894909468e-07	1.381416494614398e-06	1.199405039126961e-07	-2.497590847973745e-07	-6.262483814626511e-08	-2.082307513916712e-07
0.53	-0.09839092023611701	-0.04519809458633857	0.7949375401833852	0.9745035145475981	-0.3313058202331005	-0.06102239021044584	-0.8152763260990539	0.9714496817208735	0.9714496817208826	-0.102068538008642	-0.1743965333837597	0.1626040781758681	0.01614245879306827	-0.1191783804119969	-0.1355006390205994	-0.4157000416296985	1.535523595449342	-0.02214137912676673	0.552381975194252	-0.782485225109006	1.723121202743349	1.7231212027433	0.1324423187815818	0.0003558553485150208	0.4246981115017426	0.1223198961648845	-0.2915067765150282	0.02012673475817614	-0.004691808223460633	-0.2569076303770396	0.07882653910033127	0.04811095990603628	0.3480090361762252	-19.55215712449874	-19.09047349657683	4.438893857698629	-8.594301906939666	-716.8667686990855	-77.02099482797679	-7.7063883252512	0.3121293091676786	0.6814344883955894	-0.00342753400009018	-1.958930889929205	0.2974651630836427	-0.5993676413556961	2.115949103121615	-1.922615799536597	-1.922615799540481	-0.296219841201988	-0.007122508377809751	-0.3877516384429952	0.2679536279789574	-2.230075036821725e-07	-1.979510212628496e-07	1.336375531118703e-06	1.148401121155531e-07	-2.356250765187293e-07	-3.655154670270214e-08	-2.023276742591278e-07
0.54	-0.09956696135588183	-0.0465190872272239	0.7907813345958152	0.9897588284650536	-0.3315121352908977	-0.05552996655088967	-0.822994674057854	0.988582467252468	0.9885824672524723	-0.100757695777867	-0.1743933109609989	0.1668311738690044	0.01737922281269626	-0.1160165260786942	-0.1287037101919586	-0.4154448909724955	1.515334074811712	-0.01913330550449264	0.5460291280819808	-0.7611141591090919	1.703195271696187	1.703195271696113	0.1297316353533267	0.0002823697461944492	0.4206544417184561	0.1250016336228748	-0.2974192165281993	0.02032847554475267	-0.00479682354316475	-0.2606354583493347	0.07774401175977717	0.04803997659123101	0.3539532545514726	-20.16583351433149	-18.89472184047441	4.342037971022698	-8.36117429725766	-721.4267518586425	-76.89296226696307	-7.022794257046115	0.3203455107869718	0.6779097272194354	0.05464224792826869	-2.077404154509279	0.3113475085350151	-0.6846509928483927	2.158359330373079	-2.060440932774807	-2.060440932774817	-0.2223837504777079	-0.006460192891684849	-0.4176178401016583	0.2782453548013053	-2.090802555661105e-07	-1.595073539817165e-07	1.292413084505168e-06	1.131535395821177e-07	-2.187419831205473e-07	-3.264755463632623e-09	-1.92583509713219e-07
